<svg xmlns="http://www.w3.org/2000/svg" viewBox="0 0 800 800">
<defs>
 <linearGradient id="gold" x1="0" y1="0" x2="1" y2="1"><stop offset="0" stop-color="#fff06a"/><stop offset=".45" stop-color="#ffc400"/><stop offset="1" stop-color="#e08b00"/></linearGradient>
 <linearGradient id="white" x1="0" y1="0" x2="1" y2="1"><stop offset="0" stop-color="#fff"/><stop offset="1" stop-color="#d7dbe0"/></linearGradient>
</defs>
<rect width="800" height="800" rx="48" fill="#050505"/>
<circle cx="400" cy="235" r="170" fill="none" stroke="url(#gold)" stroke-width="12" stroke-dasharray="300 30"/>
<path d="M400 70c-63 0-114 51-114 114 0 78 114 183 114 183S514 262 514 184C514 121 463 70 400 70zm0 65a49 49 0 1 1 0 98 49 49 0 0 1 0-98z" fill="url(#gold)"/>
<path d="M120 470c42-82 95-120 158-132 82-16 166-16 248 0 63 12 116 50 158 132l-24 88H140z" fill="#070707" stroke="url(#gold)" stroke-width="10"/>
<path d="M250 352h300l62 88H188z" fill="#0b0b0b" stroke="#f5c400" stroke-width="7"/>
<path d="M278 367h244l34 54H244z" fill="#171717" stroke="#cfd3d8" stroke-width="5"/>
<path d="M150 458h500l-40 87H190z" fill="#0a0a0a" stroke="#f5c400" stroke-width="7"/>
<path d="M180 512h440" stroke="#fff" stroke-width="8" stroke-linecap="round"/>
<path d="M116 596C245 566 388 548 560 510c83-18 132-1 168 43-92 7-183 33-281 66-114 38-225 58-331 58 0 0 2-44 0-81z" fill="#080808" stroke="url(#gold)" stroke-width="10"/>
<path d="M554 593c25-5 49-8 72-10" stroke="#fff" stroke-width="8" stroke-linecap="round"/>
<path d="M625 578c18-2 34-3 50-3" stroke="#fff" stroke-width="8" stroke-linecap="round"/>
<text x="400" y="705" text-anchor="middle" font-family="Arial,Helvetica,sans-serif" font-size="105" font-weight="900" font-style="italic" letter-spacing="-5"><tspan fill="url(#gold)">22</tspan><tspan fill="url(#white)"> DRIVE</tspan></text>
<path d="M92 742h50M658 742h50" stroke="url(#gold)" stroke-width="6"/>
<text x="400" y="752" text-anchor="middle" font-family="Arial,Helvetica,sans-serif" font-size="20" font-weight="700" letter-spacing="4" fill="#fff">SUA VIAGEM, NOSSA PRIORIDADE</text>
</svg>